<mxfile host="app.diagrams.net" modified="2024-11-20T16:18:36.388Z" agent="Mozilla/5.0 (X11; Linux x86_64) AppleWebKit/537.36 (KHTML, like Gecko) Chrome/130.0.0.0 Safari/537.36" version="24.6.4" etag="cqUWfdJnPOgcfFcL39Yw" type="github">
  <diagram name="Page-1" id="3Z-0IUmU1UpRUM9eZ_BJ">
    <mxGraphModel>
      <root>
        <mxCell id="0" />
        <mxCell id="1" parent="0" />
      </root>
    </mxGraphModel>
  </diagram>
</mxfile>
